<svg width="351" height="98" viewBox="0 0 351 98" fill="none" xmlns="http://www.w3.org/2000/svg">
<path d="M147.242 33.9437C151.048 33.9437 154.116 35.162 156.408 37.5988C158.719 40.0355 159.875 43.2652 159.875 47.3071V67.1105H149.892V48.1387C149.892 46.4948 149.474 45.2184 148.657 44.2708C147.84 43.3232 146.644 42.859 145.09 42.859C143.456 42.859 142.181 43.4005 141.264 44.4642C140.347 45.5472 139.909 47.017 139.909 48.9122V67.1105H129.926V48.1387C129.926 46.4948 129.508 45.2184 128.691 44.2708C127.874 43.3232 126.678 42.859 125.124 42.859C123.49 42.859 122.215 43.4005 121.298 44.4642C120.381 45.5472 119.943 47.017 119.943 48.9122V67.1105H110V34.8333H119.983V37.7922C121.796 35.22 124.765 33.9243 128.89 33.9243C132.756 33.9243 135.645 35.3361 137.598 38.1789C139.63 35.3554 142.838 33.9437 147.242 33.9437Z" fill="#041836"/>
<path d="M195.164 63.0686C191.757 66.3562 187.592 68.0001 182.67 68.0001C177.749 68.0001 173.584 66.3562 170.177 63.0686C166.769 59.7809 165.056 55.739 165.056 50.9622C165.056 46.1854 166.769 42.1628 170.177 38.8558C173.584 35.5682 177.749 33.9243 182.67 33.9243C187.592 33.9243 191.757 35.5682 195.164 38.8558C198.571 42.1435 200.285 46.1854 200.285 50.9622C200.285 55.7583 198.591 59.7809 195.164 63.0686ZM177.211 56.4545C178.665 57.8663 180.498 58.5819 182.67 58.5819C184.842 58.5819 186.656 57.8663 188.13 56.4545C189.605 55.0428 190.322 53.2055 190.322 50.9622C190.322 48.7188 189.585 46.9009 188.13 45.4698C186.676 44.0387 184.842 43.3425 182.67 43.3425C180.498 43.3425 178.685 44.0581 177.211 45.4698C175.736 46.8816 175.019 48.7188 175.019 50.9622C175.019 53.2055 175.756 55.0428 177.211 56.4545Z" fill="#041836"/>
<path d="M215.907 40.5768C216.525 38.5075 217.78 36.9217 219.673 35.8387C221.566 34.7363 223.638 34.1948 225.89 34.1948V45.1602C223.459 44.7734 221.187 45.1795 219.075 46.3592C216.963 47.5389 215.927 49.5889 215.927 52.5284V67.1102H205.944V34.833H215.927V40.5768H215.907Z" fill="#041836"/>
<path d="M253.687 34.8333H263.67V67.0911H253.687V64.0549C251.336 66.685 248.028 68.0001 243.784 68.0001C239.4 68.0001 235.654 66.3562 232.545 63.0686C229.437 59.7809 227.883 55.739 227.883 50.9622C227.883 46.1854 229.437 42.1628 232.545 38.8558C235.654 35.5682 239.4 33.9243 243.784 33.9243C248.048 33.9243 251.336 35.2394 253.687 37.8695V34.8333ZM240.057 56.7253C241.512 58.137 243.425 58.8526 245.776 58.8526C248.127 58.8526 250.04 58.137 251.495 56.7253C252.95 55.3135 253.687 53.3989 253.687 50.9815C253.687 48.5641 252.95 46.6495 251.495 45.2378C250.04 43.826 248.127 43.1105 245.776 43.1105C243.425 43.1105 241.512 43.826 240.057 45.2378C238.603 46.6495 237.866 48.5641 237.866 50.9815C237.846 53.3796 238.583 55.2942 240.057 56.7253Z" fill="#041836"/>
<path d="M270.963 67.1104V20H280.946V67.1104H270.963Z" fill="#041836"/>
<path d="M297.464 30.2884C296.289 31.4294 294.874 31.9903 293.24 31.9903C291.606 31.9903 290.191 31.4294 289.016 30.2884C287.84 29.1474 287.262 27.7743 287.262 26.1885C287.262 24.6027 287.84 23.2296 289.016 22.0886C290.191 20.9476 291.606 20.3867 293.24 20.3867C294.874 20.3867 296.289 20.9669 297.464 22.0886C298.64 23.2296 299.218 24.6027 299.218 26.1885C299.218 27.7936 298.64 29.1474 297.464 30.2884ZM288.259 67.1103V34.8331H298.242V67.091H288.259V67.1103Z" fill="#041836"/>
<path d="M314.641 44.2709C314.641 44.9091 315.199 45.4506 316.334 45.8567C317.47 46.2628 318.825 46.669 320.419 47.0751C322.013 47.4812 323.607 48.0034 325.202 48.6609C326.796 49.2991 328.151 50.3628 329.286 51.8519C330.422 53.341 330.98 55.1976 330.98 57.4409C330.98 60.922 329.645 63.5521 326.995 65.3507C324.345 67.1299 321.057 68.0195 317.151 68.0195C310.137 68.0195 305.375 65.4667 302.864 60.3418L311.512 55.565C312.389 58.0985 314.282 59.3749 317.171 59.3749C319.562 59.3749 320.758 58.7173 320.758 57.3829C320.758 56.7447 320.2 56.2032 319.064 55.7778C317.928 55.3523 316.574 54.9268 314.979 54.5207C313.385 54.1146 311.791 53.5731 310.197 52.9155C308.603 52.258 307.248 51.2137 306.112 49.7826C304.977 48.3515 304.419 46.6109 304.419 44.561C304.419 41.196 305.674 38.6045 308.185 36.7479C310.695 34.8914 313.784 33.9824 317.45 33.9824C320.2 33.9824 322.711 34.5819 324.962 35.7616C327.214 36.9413 329.047 38.6625 330.422 40.8865L321.914 45.3346C320.858 43.4393 319.363 42.4917 317.45 42.4917C315.577 42.453 314.641 43.0525 314.641 44.2709Z" fill="#041836"/>
<path d="M82.3747 69.8939L82.343 69.8779C82.2479 70.0223 82.1369 70.1667 82.0418 70.3112C82.1527 70.1667 82.2796 70.0384 82.3747 69.8939Z" fill="#041836"/>
<path d="M91 43.7989C90.7146 32.26 81.4076 23 69.96 23C64.3314 23 59.2419 25.2468 55.4524 28.8898C51.6947 25.2468 46.621 23 41.04 23C29.5925 23 20.2854 32.3724 20 44.0557V44.136V44.2162C20 53.1071 23.1869 61.003 26.1043 66.4274C27.5788 69.1878 29.0692 71.4346 30.195 73.0073C30.7499 73.7937 31.2414 74.4196 31.5902 74.869C31.7646 75.0936 31.9073 75.2702 32.0183 75.3986C32.0659 75.4627 32.1134 75.5109 32.1452 75.559C32.161 75.5751 32.1769 75.5911 32.1927 75.6072L32.2086 75.6232L32.2244 75.6393C34.6661 78.512 38.9154 78.8009 41.7218 76.2973C44.5123 73.7937 44.7977 69.4445 42.3718 66.5718C42.3718 66.5718 42.3718 66.5718 42.3718 66.5558C42.3718 66.5397 42.356 66.5237 42.3243 66.5077C42.2767 66.4435 42.1974 66.3472 42.0706 66.2027C41.8486 65.9139 41.4998 65.4645 41.0717 64.8546C40.2155 63.651 39.0581 61.9017 37.9165 59.7512C35.5699 55.386 33.5087 49.8813 33.477 44.2964C33.6197 40.1238 36.9652 36.7857 41.0558 36.7857C45.1782 36.7857 48.5395 40.1559 48.6347 44.3767C48.6664 45.4519 48.9359 46.463 49.3799 47.3617C50.3312 49.9455 52.7887 51.7911 55.6744 51.7911C59.3845 51.7911 62.3971 48.7419 62.3971 44.9705V44.0557C62.5397 39.9312 65.8852 36.6413 69.9759 36.6413C74.0666 36.6413 77.412 39.9473 77.5547 44.0557C77.5389 48.5493 76.1119 52.9627 74.5105 56.4613C73.7177 58.1784 72.9408 59.5747 72.37 60.5376C72.0846 61.019 71.8468 61.3721 71.7041 61.5968C71.6248 61.7091 71.5773 61.7894 71.5456 61.8215C71.5297 61.8375 71.5297 61.8536 71.5138 61.8536C71.498 61.8857 71.4504 61.9499 71.4504 61.9499C72.6871 60.3771 74.5739 59.3821 76.7144 59.3821C80.4245 59.3821 83.437 62.4313 83.437 66.1867C83.437 67.5508 83.0406 68.8026 82.3589 69.8779C82.3906 69.8939 82.3906 69.8939 82.3906 69.8939V69.8779L82.4064 69.8618C82.4223 69.8458 82.4223 69.8297 82.4381 69.8137C82.4699 69.7816 82.5016 69.7334 82.5333 69.6692C82.6126 69.5569 82.7077 69.4124 82.8345 69.2199C83.0882 68.8507 83.4212 68.3211 83.8176 67.6631C84.6103 66.3472 85.6568 64.4855 86.7032 62.1906C88.7644 57.697 90.9841 51.2134 90.9841 43.9594V43.8792L91 43.7989Z" fill="#041836"/>
<path d="M76.6986 59.3821C74.5739 59.3821 72.6713 60.3932 71.4346 61.9499C70.515 63.1054 69.9759 64.5818 69.9759 66.1867C69.9759 69.9421 72.9884 72.9913 76.6986 72.9913C78.8866 72.9913 80.8051 71.9321 82.0418 70.3112C82.1528 70.1667 82.2479 70.0223 82.343 69.8779C83.0248 68.8187 83.4212 67.5508 83.4212 66.1867C83.4212 62.4313 80.4245 59.3821 76.6986 59.3821Z" fill="#B7E803"/>
</svg>
